<?xml version="1.0" standalone="no"?>
<!DOCTYPE svg PUBLIC "-//W3C//DTD SVG 20010904//EN"
 "http://www.w3.org/TR/2001/REC-SVG-20010904/DTD/svg10.dtd">
<svg version="1.0" xmlns="http://www.w3.org/2000/svg"
 width="488.000000pt" height="488.000000pt" viewBox="0 0 488.000000 488.000000"
 preserveAspectRatio="xMidYMid meet">
<metadata>
Created by potrace 1.11, written by Peter Selinger 2001-2013
</metadata>
<g transform="translate(0.000000,488.000000) scale(0.100000,-0.100000)"
fill="#000000" stroke="none">
<path d="M2310 4873 c-14 -3 -50 -16 -80 -29 -42 -19 -63 -36 -87 -72 -70
-107 -77 -178 -30 -307 14 -38 31 -105 38 -147 l13 -77 -39 -78 c-33 -64 -40
-88 -40 -138 0 -67 13 -99 86 -215 81 -127 82 -134 76 -305 -6 -151 -28 -289
-53 -335 -7 -14 -32 -45 -54 -70 -22 -24 -40 -52 -40 -63 0 -24 -33 -84 -69
-126 l-30 -34 -58 13 c-32 7 -75 22 -95 34 l-37 21 -41 -40 c-23 -22 -71 -83
-108 -135 -37 -52 -88 -117 -114 -143 -27 -26 -48 -52 -48 -57 0 -17 47 -11
203 24 84 19 193 40 242 46 50 7 108 17 130 22 22 6 60 11 85 10 25 -1 51 5
60 13 12 11 23 11 58 2 39 -10 45 -10 58 8 36 49 3 105 -63 105 -39 0 -40 4
-12 49 11 18 34 68 50 110 36 91 65 141 127 224 54 70 86 139 109 231 l15 63
61 7 c60 6 78 1 135 -35 20 -13 22 -22 22 -99 0 -47 -7 -155 -16 -240 -15
-133 -15 -179 -5 -323 6 -92 15 -175 20 -185 24 -45 32 -159 20 -292 -14 -163
-8 -315 21 -513 l22 -149 -26 -27 c-18 -19 -26 -38 -26 -63 0 -19 -7 -41 -15
-48 -19 -16 -20 -66 -1 -73 17 -7 26 -54 12 -66 -19 -15 -108 -24 -209 -22
-75 2 -104 -1 -122 -13 -23 -15 -28 -13 -132 50 -59 36 -168 100 -242 141
-218 122 -604 383 -764 516 -27 22 -104 108 -172 191 -68 83 -177 215 -242
293 -65 77 -147 182 -182 233 -89 127 -125 155 -287 226 -223 98 -284 112
-284 65 0 -22 158 -246 253 -359 34 -41 91 -111 126 -155 143 -183 308 -376
424 -495 112 -115 544 -402 811 -538 61 -31 166 -88 235 -126 69 -39 194 -107
276 -151 83 -44 200 -107 260 -139 61 -32 238 -122 395 -198 157 -77 310 -153
340 -169 30 -16 119 -56 197 -90 127 -54 422 -199 662 -325 l85 -44 17 -72
c27 -117 45 -147 98 -167 112 -44 348 2 398 76 21 31 23 45 23 165 0 155 -14
285 -75 681 -25 162 -45 312 -45 333 0 22 -4 52 -10 68 -5 16 -21 124 -35 239
-14 116 -28 217 -30 225 -2 8 -13 87 -25 175 -11 88 -43 288 -70 445 -27 157
-56 337 -64 400 -27 198 -76 636 -75 671 1 63 -14 93 -54 106 -31 10 -44 9
-89 -6 -64 -23 -248 -110 -304 -146 l-42 -26 -23 68 c-17 47 -36 79 -65 108
-23 22 -48 53 -56 69 -8 16 -42 47 -76 70 -53 36 -158 131 -230 209 -13 14
-30 52 -38 87 -33 143 -132 274 -254 335 -61 31 -275 101 -341 112 -24 5 -27
10 -33 66 -8 82 -53 175 -113 235 -71 71 -185 104 -293 85z m1964 -1318 c4
-12 -3 -15 -30 -15 -77 0 -379 -146 -418 -202 -37 -52 -20 -218 88 -853 46
-276 77 -487 59 -410 -17 75 -92 470 -98 515 -4 30 -25 136 -47 234 -21 99
-44 231 -49 295 -5 64 -12 124 -15 133 -16 51 66 133 196 198 35 18 81 43 102
56 88 56 199 81 212 49z m-891 -523 c21 -24 91 -133 183 -287 32 -53 94 -196
94 -216 0 -6 38 -77 84 -158 124 -217 183 -331 195 -376 6 -22 22 -129 36
-239 14 -109 27 -202 30 -206 2 -4 9 -40 16 -81 6 -41 20 -112 31 -159 17 -75
35 -195 68 -445 8 -61 30 -192 58 -347 9 -45 8 -48 -12 -48 -12 0 -47 14 -78
30 -73 38 -366 172 -563 257 -148 63 -314 147 -367 185 -19 13 -33 38 -47 81
-16 55 -17 76 -9 177 5 63 11 194 14 291 6 158 4 177 -11 193 -17 16 -17 26
-1 189 9 95 20 224 26 287 12 156 49 348 119 624 32 127 61 243 65 258 7 32
32 29 69 -10z m-1483 -232 c30 -6 60 -14 65 -18 9 -6 35 -56 35 -66 0 -14
-268 -68 -315 -64 l-35 3 71 83 c62 73 75 82 98 78 14 -3 51 -10 81 -16z
m2087 -797 c-3 -10 -5 -4 -5 12 0 17 2 24 5 18 2 -7 2 -21 0 -30z m10 -65 c-3
-7 -5 -2 -5 12 0 14 2 19 5 13 2 -7 2 -19 0 -25z m10 -60 c-3 -7 -5 -2 -5 12
0 14 2 19 5 13 2 -7 2 -19 0 -25z"/>
</g>
</svg>
